<svg width="58" height="19" viewBox="0 0 58 19" fill="none" xmlns="http://www.w3.org/2000/svg">
<path d="M3.85227 12H0.758523V3.27273H3.87784C4.75568 3.27273 5.51136 3.44744 6.14489 3.79688C6.77841 4.14347 7.26563 4.64205 7.60653 5.29261C7.95028 5.94318 8.12216 6.72159 8.12216 7.62784C8.12216 8.53693 7.95028 9.31818 7.60653 9.97159C7.26563 10.625 6.77557 11.1264 6.13636 11.4759C5.5 11.8253 4.73864 12 3.85227 12ZM2.60369 10.419H3.77557C4.32102 10.419 4.77983 10.3224 5.15199 10.1293C5.52699 9.93324 5.80824 9.63068 5.99574 9.22159C6.18608 8.80966 6.28125 8.27841 6.28125 7.62784C6.28125 6.98295 6.18608 6.45597 5.99574 6.04688C5.80824 5.63778 5.52841 5.33665 5.15625 5.14347C4.78409 4.95028 4.32528 4.85369 3.77983 4.85369H2.60369V10.419ZM12.4379 12.1278C11.7646 12.1278 11.185 11.9915 10.6992 11.7188C10.2163 11.4432 9.84411 11.054 9.58274 10.5511C9.32138 10.0455 9.1907 9.44744 9.1907 8.7571C9.1907 8.08381 9.32138 7.4929 9.58274 6.98438C9.84411 6.47585 10.212 6.07955 10.6864 5.79545C11.1637 5.51136 11.7234 5.36932 12.3654 5.36932C12.7972 5.36932 13.1992 5.43892 13.5714 5.57812C13.9464 5.71449 14.2731 5.92045 14.5515 6.19602C14.8327 6.47159 15.0515 6.81818 15.2077 7.2358C15.364 7.65057 15.4421 8.13636 15.4421 8.69318V9.19176H9.91513V8.06676H13.7333C13.7333 7.8054 13.6765 7.57386 13.5629 7.37216C13.4492 7.17045 13.2915 7.01278 13.0898 6.89915C12.891 6.78267 12.6594 6.72443 12.3952 6.72443C12.1197 6.72443 11.8754 6.78835 11.6623 6.91619C11.4521 7.04119 11.2873 7.21023 11.168 7.4233C11.0487 7.63352 10.9876 7.8679 10.9847 8.12642V9.19602C10.9847 9.51989 11.0444 9.79972 11.1637 10.0355C11.2859 10.2713 11.4577 10.4531 11.6793 10.581C11.9009 10.7088 12.1637 10.7727 12.4677 10.7727C12.6694 10.7727 12.854 10.7443 13.0217 10.6875C13.1893 10.6307 13.3327 10.5455 13.4521 10.4318C13.5714 10.3182 13.6623 10.179 13.7248 10.0142L15.4038 10.125C15.3185 10.5284 15.1438 10.8807 14.8796 11.1818C14.6183 11.4801 14.2802 11.7131 13.8654 11.8807C13.4535 12.0455 12.9776 12.1278 12.4379 12.1278ZM18.016 12L15.5188 3.27273H17.5344L18.979 9.33665H19.0515L20.6452 3.27273H22.3711L23.9606 9.34943H24.0373L25.4819 3.27273H27.4975L25.0004 12H23.2021L21.5401 6.29403H21.4719L19.8143 12H18.016ZM30.7308 12.1278C30.0575 12.1278 29.478 11.9915 28.9922 11.7188C28.5092 11.4432 28.1371 11.054 27.8757 10.5511C27.6143 10.0455 27.4837 9.44744 27.4837 8.7571C27.4837 8.08381 27.6143 7.4929 27.8757 6.98438C28.1371 6.47585 28.505 6.07955 28.9794 5.79545C29.4567 5.51136 30.0163 5.36932 30.6584 5.36932C31.0902 5.36932 31.4922 5.43892 31.8643 5.57812C32.2393 5.71449 32.5661 5.92045 32.8445 6.19602C33.1257 6.47159 33.3445 6.81818 33.5007 7.2358C33.657 7.65057 33.7351 8.13636 33.7351 8.69318V9.19176H28.2081V8.06676H32.0263C32.0263 7.8054 31.9695 7.57386 31.8558 7.37216C31.7422 7.17045 31.5845 7.01278 31.3828 6.89915C31.1839 6.78267 30.9524 6.72443 30.6882 6.72443C30.4126 6.72443 30.1683 6.78835 29.9553 6.91619C29.745 7.04119 29.5803 7.21023 29.4609 7.4233C29.3416 7.63352 29.2805 7.8679 29.2777 8.12642V9.19602C29.2777 9.51989 29.3374 9.79972 29.4567 10.0355C29.5788 10.2713 29.7507 10.4531 29.9723 10.581C30.1939 10.7088 30.4567 10.7727 30.7607 10.7727C30.9624 10.7727 31.147 10.7443 31.3146 10.6875C31.4822 10.6307 31.6257 10.5455 31.745 10.4318C31.8643 10.3182 31.9553 10.179 32.0178 10.0142L33.6967 10.125C33.6115 10.5284 33.4368 10.8807 33.1726 11.1818C32.9112 11.4801 32.5732 11.7131 32.1584 11.8807C31.7464 12.0455 31.2706 12.1278 30.7308 12.1278ZM36.7862 12.1236C36.3686 12.1236 35.9964 12.0511 35.6697 11.9062C35.343 11.7585 35.0845 11.5412 34.8942 11.2543C34.7067 10.9645 34.6129 10.6037 34.6129 10.1719C34.6129 9.80824 34.6797 9.50284 34.8132 9.25568C34.9467 9.00852 35.1286 8.80966 35.3587 8.65909C35.5888 8.50852 35.8501 8.39489 36.1428 8.31818C36.4382 8.24148 36.7479 8.1875 37.0717 8.15625C37.4524 8.11648 37.7592 8.07955 37.9922 8.04545C38.2251 8.00852 38.3942 7.95455 38.4993 7.88352C38.6044 7.8125 38.657 7.70739 38.657 7.56818V7.54261C38.657 7.27273 38.5717 7.06392 38.4013 6.91619C38.2337 6.76847 37.995 6.6946 37.6854 6.6946C37.3587 6.6946 37.0987 6.76705 36.9055 6.91193C36.7124 7.05398 36.5845 7.23295 36.522 7.44886L34.843 7.3125C34.9283 6.91477 35.0959 6.57102 35.3459 6.28125C35.5959 5.98864 35.9183 5.7642 36.3132 5.60795C36.7109 5.44886 37.1712 5.36932 37.6939 5.36932C38.0575 5.36932 38.4055 5.41193 38.7379 5.49716C39.0732 5.58239 39.37 5.71449 39.6286 5.89347C39.8899 6.07244 40.0959 6.30256 40.2464 6.58381C40.397 6.86222 40.4723 7.19602 40.4723 7.58523V12H38.7507V11.0923H38.6996C38.5945 11.2969 38.4538 11.4773 38.2777 11.6335C38.1016 11.7869 37.8899 11.9077 37.6428 11.9957C37.3956 12.081 37.1101 12.1236 36.7862 12.1236ZM37.3061 10.8707C37.5732 10.8707 37.8089 10.8182 38.0135 10.7131C38.218 10.6051 38.3786 10.4602 38.495 10.2784C38.6115 10.0966 38.6697 9.89062 38.6697 9.66051V8.96591C38.6129 9.00284 38.5348 9.03693 38.4354 9.06818C38.3388 9.09659 38.2294 9.12358 38.1072 9.14915C37.9851 9.17187 37.8629 9.19318 37.7408 9.21307C37.6186 9.23011 37.5078 9.24574 37.4084 9.25994C37.1953 9.29119 37.0092 9.34091 36.8501 9.40909C36.6911 9.47727 36.5675 9.5696 36.4794 9.68608C36.3913 9.79972 36.3473 9.94176 36.3473 10.1122C36.3473 10.3594 36.4368 10.5483 36.6158 10.679C36.7976 10.8068 37.0277 10.8707 37.3061 10.8707ZM43.696 3.27273V12H41.8807V3.27273H43.696ZM48.6317 5.45455V6.81818H44.69V5.45455H48.6317ZM45.5849 3.88636H47.4002V9.98864C47.4002 10.1562 47.4258 10.2869 47.4769 10.3807C47.5281 10.4716 47.5991 10.5355 47.69 10.5724C47.7837 10.6094 47.8917 10.6278 48.0138 10.6278C48.0991 10.6278 48.1843 10.6207 48.2695 10.6065C48.3548 10.5895 48.4201 10.5767 48.4656 10.5682L48.7511 11.919C48.6602 11.9474 48.5323 11.9801 48.3675 12.017C48.2028 12.0568 48.0025 12.081 47.7667 12.0895C47.3292 12.1065 46.9457 12.0483 46.6161 11.9148C46.2894 11.7812 46.0352 11.5739 45.8533 11.2926C45.6715 11.0114 45.582 10.6562 45.5849 10.2273V3.88636ZM51.7702 8.21591V12H49.9549V3.27273H51.7191V6.60938H51.7958C51.9435 6.22301 52.1822 5.92045 52.5117 5.7017C52.8413 5.48011 53.2546 5.36932 53.7518 5.36932C54.2063 5.36932 54.6026 5.46875 54.9407 5.66761C55.2816 5.86364 55.5458 6.14631 55.7333 6.51562C55.9237 6.8821 56.0174 7.32102 56.0146 7.83239V12H54.1992V8.15625C54.2021 7.75284 54.0998 7.43892 53.8924 7.21449C53.6879 6.99006 53.4009 6.87784 53.0316 6.87784C52.7844 6.87784 52.5657 6.9304 52.3754 7.03551C52.1879 7.14062 52.0401 7.29403 51.9322 7.49574C51.8271 7.6946 51.7731 7.93466 51.7702 8.21591Z" fill="url(#paint0_linear_7_29)"/>
<path d="M35.3161 17V13.3636H36.7507C37.0265 13.3636 37.2615 13.4163 37.4556 13.5217C37.6497 13.6258 37.7977 13.7708 37.8995 13.9567C38.0025 14.1413 38.054 14.3544 38.054 14.5959C38.054 14.8374 38.0019 15.0504 37.8977 15.2351C37.7936 15.4197 37.6426 15.5636 37.445 15.6665C37.2485 15.7695 37.0105 15.821 36.7312 15.821H35.8168V15.2049H36.6069C36.7549 15.2049 36.8768 15.1795 36.9727 15.1286C37.0697 15.0765 37.1419 15.0049 37.1893 14.9137C37.2378 14.8214 37.2621 14.7154 37.2621 14.5959C37.2621 14.4751 37.2378 14.3698 37.1893 14.2798C37.1419 14.1887 37.0697 14.1183 36.9727 14.0685C36.8756 14.0176 36.7525 13.9922 36.6033 13.9922H36.0849V17H35.3161ZM39.7275 17.0533C39.4516 17.0533 39.2131 16.9947 39.0119 16.8775C38.8118 16.7591 38.6574 16.5946 38.5485 16.3839C38.4396 16.172 38.3851 15.9264 38.3851 15.647C38.3851 15.3653 38.4396 15.1191 38.5485 14.9084C38.6574 14.6965 38.8118 14.532 39.0119 14.4148C39.2131 14.2964 39.4516 14.2372 39.7275 14.2372C40.0033 14.2372 40.2412 14.2964 40.4412 14.4148C40.6425 14.532 40.7975 14.6965 40.9064 14.9084C41.0153 15.1191 41.0698 15.3653 41.0698 15.647C41.0698 15.9264 41.0153 16.172 40.9064 16.3839C40.7975 16.5946 40.6425 16.7591 40.4412 16.8775C40.2412 16.9947 40.0033 17.0533 39.7275 17.0533ZM39.731 16.4673C39.8565 16.4673 39.9612 16.4318 40.0453 16.3608C40.1293 16.2886 40.1926 16.1903 40.2353 16.0661C40.2791 15.9418 40.301 15.8003 40.301 15.6417C40.301 15.4831 40.2791 15.3416 40.2353 15.2173C40.1926 15.093 40.1293 14.9948 40.0453 14.9226C39.9612 14.8504 39.8565 14.8143 39.731 14.8143C39.6043 14.8143 39.4978 14.8504 39.4114 14.9226C39.3262 14.9948 39.2617 15.093 39.2179 15.2173C39.1752 15.3416 39.1539 15.4831 39.1539 15.6417C39.1539 15.8003 39.1752 15.9418 39.2179 16.0661C39.2617 16.1903 39.3262 16.2886 39.4114 16.3608C39.4978 16.4318 39.6043 16.4673 39.731 16.4673ZM41.5616 17V14.2727H42.2949V14.7486H42.3233C42.373 14.5793 42.4565 14.4515 42.5737 14.3651C42.6909 14.2775 42.8258 14.2337 42.9785 14.2337C43.0164 14.2337 43.0572 14.236 43.101 14.2408C43.1448 14.2455 43.1833 14.252 43.2164 14.2603V14.9315C43.1809 14.9208 43.1318 14.9113 43.0691 14.9031C43.0063 14.8948 42.9489 14.8906 42.8968 14.8906C42.7856 14.8906 42.6861 14.9149 42.5985 14.9634C42.5121 15.0108 42.4435 15.0771 42.3926 15.1623C42.3429 15.2475 42.318 15.3458 42.318 15.457V17H41.5616ZM45.1949 14.2727V14.8409H43.5525V14.2727H45.1949ZM43.9253 13.6193H44.6817V16.1619C44.6817 16.2318 44.6924 16.2862 44.7137 16.3253C44.735 16.3632 44.7646 16.3898 44.8025 16.4052C44.8415 16.4206 44.8865 16.4283 44.9374 16.4283C44.9729 16.4283 45.0084 16.4253 45.0439 16.4194C45.0795 16.4123 45.1067 16.407 45.1256 16.4034L45.2446 16.9663C45.2067 16.9781 45.1534 16.9917 45.0848 17.0071C45.0161 17.0237 44.9327 17.0337 44.8344 17.0373C44.6521 17.0444 44.4923 17.0201 44.355 16.9645C44.2189 16.9089 44.113 16.8224 44.0372 16.7053C43.9614 16.5881 43.9242 16.4401 43.9253 16.2614V13.6193ZM47.1542 14.2727V14.8409H45.471V14.2727H47.1542ZM45.8563 17V14.0756C45.8563 13.878 45.8947 13.714 45.9717 13.5838C46.0498 13.4536 46.1563 13.3559 46.2913 13.2908C46.4262 13.2257 46.5795 13.1932 46.7512 13.1932C46.8672 13.1932 46.9731 13.2021 47.069 13.2198C47.166 13.2376 47.2383 13.2536 47.2856 13.2678L47.1507 13.8359C47.1211 13.8265 47.0844 13.8176 47.0406 13.8093C46.998 13.801 46.9542 13.7969 46.9092 13.7969C46.7979 13.7969 46.7204 13.8229 46.6766 13.875C46.6328 13.9259 46.6109 13.9975 46.6109 14.0898V17H45.8563ZM48.7509 17.0533C48.4751 17.0533 48.2366 16.9947 48.0353 16.8775C47.8353 16.7591 47.6808 16.5946 47.5719 16.3839C47.463 16.172 47.4086 15.9264 47.4086 15.647C47.4086 15.3653 47.463 15.1191 47.5719 14.9084C47.6808 14.6965 47.8353 14.532 48.0353 14.4148C48.2366 14.2964 48.4751 14.2372 48.7509 14.2372C49.0267 14.2372 49.2646 14.2964 49.4647 14.4148C49.6659 14.532 49.821 14.6965 49.9299 14.9084C50.0388 15.1191 50.0932 15.3653 50.0932 15.647C50.0932 15.9264 50.0388 16.172 49.9299 16.3839C49.821 16.5946 49.6659 16.7591 49.4647 16.8775C49.2646 16.9947 49.0267 17.0533 48.7509 17.0533ZM48.7544 16.4673C48.8799 16.4673 48.9847 16.4318 49.0687 16.3608C49.1528 16.2886 49.2161 16.1903 49.2587 16.0661C49.3025 15.9418 49.3244 15.8003 49.3244 15.6417C49.3244 15.4831 49.3025 15.3416 49.2587 15.2173C49.2161 15.093 49.1528 14.9948 49.0687 14.9226C48.9847 14.8504 48.8799 14.8143 48.7544 14.8143C48.6278 14.8143 48.5212 14.8504 48.4348 14.9226C48.3496 14.9948 48.2851 15.093 48.2413 15.2173C48.1987 15.3416 48.1774 15.4831 48.1774 15.6417C48.1774 15.8003 48.1987 15.9418 48.2413 16.0661C48.2851 16.1903 48.3496 16.2886 48.4348 16.3608C48.5212 16.4318 48.6278 16.4673 48.7544 16.4673ZM51.3414 13.3636V17H50.585V13.3636H51.3414ZM51.9474 17V14.2727H52.7037V17H51.9474ZM52.3273 13.9212C52.2149 13.9212 52.1184 13.8839 52.0379 13.8093C51.9586 13.7335 51.9189 13.643 51.9189 13.5376C51.9189 13.4335 51.9586 13.3441 52.0379 13.2695C52.1184 13.1938 52.2149 13.1559 52.3273 13.1559C52.4398 13.1559 52.5357 13.1938 52.615 13.2695C52.6955 13.3441 52.7357 13.4335 52.7357 13.5376C52.7357 13.643 52.6955 13.7335 52.615 13.8093C52.5357 13.8839 52.4398 13.9212 52.3273 13.9212ZM54.5419 17.0533C54.2661 17.0533 54.0276 16.9947 53.8263 16.8775C53.6263 16.7591 53.4718 16.5946 53.3629 16.3839C53.254 16.172 53.1996 15.9264 53.1996 15.647C53.1996 15.3653 53.254 15.1191 53.3629 14.9084C53.4718 14.6965 53.6263 14.532 53.8263 14.4148C54.0276 14.2964 54.2661 14.2372 54.5419 14.2372C54.8177 14.2372 55.0556 14.2964 55.2557 14.4148C55.4569 14.532 55.612 14.6965 55.7209 14.9084C55.8298 15.1191 55.8842 15.3653 55.8842 15.647C55.8842 15.9264 55.8298 16.172 55.7209 16.3839C55.612 16.5946 55.4569 16.7591 55.2557 16.8775C55.0556 16.9947 54.8177 17.0533 54.5419 17.0533ZM54.5455 16.4673C54.6709 16.4673 54.7757 16.4318 54.8597 16.3608C54.9438 16.2886 55.0071 16.1903 55.0497 16.0661C55.0935 15.9418 55.1154 15.8003 55.1154 15.6417C55.1154 15.4831 55.0935 15.3416 55.0497 15.2173C55.0071 15.093 54.9438 14.9948 54.8597 14.9226C54.7757 14.8504 54.6709 14.8143 54.5455 14.8143C54.4188 14.8143 54.3123 14.8504 54.2259 14.9226C54.1406 14.9948 54.0761 15.093 54.0323 15.2173C53.9897 15.3416 53.9684 15.4831 53.9684 15.6417C53.9684 15.8003 53.9897 15.9418 54.0323 16.0661C54.0761 16.1903 54.1406 16.2886 54.2259 16.3608C54.3123 16.4318 54.4188 16.4673 54.5455 16.4673Z" fill="url(#paint1_linear_7_29)"/>
<defs>
<linearGradient id="paint0_linear_7_29" x1="15" y1="8" x2="52.5" y2="22" gradientUnits="userSpaceOnUse">
<stop stop-color="#6922FF"/>
<stop offset="1" stop-color="#DD9831"/>
</linearGradient>
<linearGradient id="paint1_linear_7_29" x1="40.7895" y1="15.2" x2="55.3863" y2="20.4583" gradientUnits="userSpaceOnUse">
<stop/>
<stop offset="1" stop-color="#DD9831"/>
</linearGradient>
</defs>
</svg>
