<svg width="57" height="10" viewBox="0 0 57 10" fill="none" xmlns="http://www.w3.org/2000/svg">
<path d="M3.85227 9H0.758523V0.272727H3.87784C4.75568 0.272727 5.51136 0.447443 6.14489 0.796875C6.77841 1.14347 7.26563 1.64205 7.60653 2.29261C7.95028 2.94318 8.12216 3.72159 8.12216 4.62784C8.12216 5.53693 7.95028 6.31818 7.60653 6.97159C7.26563 7.625 6.77557 8.12642 6.13636 8.47585C5.5 8.82528 4.73864 9 3.85227 9ZM2.60369 7.41903H3.77557C4.32102 7.41903 4.77983 7.32244 5.15199 7.12926C5.52699 6.93324 5.80824 6.63068 5.99574 6.22159C6.18608 5.80966 6.28125 5.27841 6.28125 4.62784C6.28125 3.98295 6.18608 3.45597 5.99574 3.04688C5.80824 2.63778 5.52841 2.33665 5.15625 2.14347C4.78409 1.95028 4.32528 1.85369 3.77983 1.85369H2.60369V7.41903ZM12.4379 9.12784C11.7646 9.12784 11.185 8.99148 10.6992 8.71875C10.2163 8.44318 9.84411 8.05398 9.58274 7.55114C9.32138 7.04545 9.1907 6.44744 9.1907 5.7571C9.1907 5.08381 9.32138 4.4929 9.58274 3.98438C9.84411 3.47585 10.212 3.07955 10.6864 2.79545C11.1637 2.51136 11.7234 2.36932 12.3654 2.36932C12.7972 2.36932 13.1992 2.43892 13.5714 2.57812C13.9464 2.71449 14.2731 2.92045 14.5515 3.19602C14.8327 3.47159 15.0515 3.81818 15.2077 4.2358C15.364 4.65057 15.4421 5.13636 15.4421 5.69318V6.19176H9.91513V5.06676H13.7333C13.7333 4.8054 13.6765 4.57386 13.5629 4.37216C13.4492 4.17045 13.2915 4.01278 13.0898 3.89915C12.891 3.78267 12.6594 3.72443 12.3952 3.72443C12.1197 3.72443 11.8754 3.78835 11.6623 3.91619C11.4521 4.04119 11.2873 4.21023 11.168 4.4233C11.0487 4.63352 10.9876 4.8679 10.9847 5.12642V6.19602C10.9847 6.51989 11.0444 6.79972 11.1637 7.03551C11.2859 7.27131 11.4577 7.45312 11.6793 7.58097C11.9009 7.70881 12.1637 7.77273 12.4677 7.77273C12.6694 7.77273 12.854 7.74432 13.0217 7.6875C13.1893 7.63068 13.3327 7.54545 13.4521 7.43182C13.5714 7.31818 13.6623 7.17898 13.7248 7.0142L15.4038 7.125C15.3185 7.52841 15.1438 7.88068 14.8796 8.18182C14.6183 8.48011 14.2802 8.71307 13.8654 8.88068C13.4535 9.04545 12.9776 9.12784 12.4379 9.12784ZM18.016 9L15.5188 0.272727H17.5344L18.979 6.33665H19.0515L20.6452 0.272727H22.3711L23.9606 6.34943H24.0373L25.4819 0.272727H27.4975L25.0004 9H23.2021L21.5401 3.29403H21.4719L19.8143 9H18.016ZM30.7308 9.12784C30.0575 9.12784 29.478 8.99148 28.9922 8.71875C28.5092 8.44318 28.1371 8.05398 27.8757 7.55114C27.6143 7.04545 27.4837 6.44744 27.4837 5.7571C27.4837 5.08381 27.6143 4.4929 27.8757 3.98438C28.1371 3.47585 28.505 3.07955 28.9794 2.79545C29.4567 2.51136 30.0163 2.36932 30.6584 2.36932C31.0902 2.36932 31.4922 2.43892 31.8643 2.57812C32.2393 2.71449 32.5661 2.92045 32.8445 3.19602C33.1257 3.47159 33.3445 3.81818 33.5007 4.2358C33.657 4.65057 33.7351 5.13636 33.7351 5.69318V6.19176H28.2081V5.06676H32.0263C32.0263 4.8054 31.9695 4.57386 31.8558 4.37216C31.7422 4.17045 31.5845 4.01278 31.3828 3.89915C31.1839 3.78267 30.9524 3.72443 30.6882 3.72443C30.4126 3.72443 30.1683 3.78835 29.9553 3.91619C29.745 4.04119 29.5803 4.21023 29.4609 4.4233C29.3416 4.63352 29.2805 4.8679 29.2777 5.12642V6.19602C29.2777 6.51989 29.3374 6.79972 29.4567 7.03551C29.5788 7.27131 29.7507 7.45312 29.9723 7.58097C30.1939 7.70881 30.4567 7.77273 30.7607 7.77273C30.9624 7.77273 31.147 7.74432 31.3146 7.6875C31.4822 7.63068 31.6257 7.54545 31.745 7.43182C31.8643 7.31818 31.9553 7.17898 32.0178 7.0142L33.6967 7.125C33.6115 7.52841 33.4368 7.88068 33.1726 8.18182C32.9112 8.48011 32.5732 8.71307 32.1584 8.88068C31.7464 9.04545 31.2706 9.12784 30.7308 9.12784ZM36.7862 9.12358C36.3686 9.12358 35.9964 9.05114 35.6697 8.90625C35.343 8.75852 35.0845 8.54119 34.8942 8.25426C34.7067 7.96449 34.6129 7.60369 34.6129 7.17188C34.6129 6.80824 34.6797 6.50284 34.8132 6.25568C34.9467 6.00852 35.1286 5.80966 35.3587 5.65909C35.5888 5.50852 35.8501 5.39489 36.1428 5.31818C36.4382 5.24148 36.7479 5.1875 37.0717 5.15625C37.4524 5.11648 37.7592 5.07955 37.9922 5.04545C38.2251 5.00852 38.3942 4.95455 38.4993 4.88352C38.6044 4.8125 38.657 4.70739 38.657 4.56818V4.54261C38.657 4.27273 38.5717 4.06392 38.4013 3.91619C38.2337 3.76847 37.995 3.6946 37.6854 3.6946C37.3587 3.6946 37.0987 3.76705 36.9055 3.91193C36.7124 4.05398 36.5845 4.23295 36.522 4.44886L34.843 4.3125C34.9283 3.91477 35.0959 3.57102 35.3459 3.28125C35.5959 2.98864 35.9183 2.7642 36.3132 2.60795C36.7109 2.44886 37.1712 2.36932 37.6939 2.36932C38.0575 2.36932 38.4055 2.41193 38.7379 2.49716C39.0732 2.58239 39.37 2.71449 39.6286 2.89347C39.8899 3.07244 40.0959 3.30256 40.2464 3.58381C40.397 3.86222 40.4723 4.19602 40.4723 4.58523V9H38.7507V8.09233H38.6996C38.5945 8.29688 38.4538 8.47727 38.2777 8.63352C38.1016 8.78693 37.8899 8.90767 37.6428 8.99574C37.3956 9.08097 37.1101 9.12358 36.7862 9.12358ZM37.3061 7.87074C37.5732 7.87074 37.8089 7.81818 38.0135 7.71307C38.218 7.60511 38.3786 7.46023 38.495 7.27841C38.6115 7.09659 38.6697 6.89062 38.6697 6.66051V5.96591C38.6129 6.00284 38.5348 6.03693 38.4354 6.06818C38.3388 6.09659 38.2294 6.12358 38.1072 6.14915C37.9851 6.17187 37.8629 6.19318 37.7408 6.21307C37.6186 6.23011 37.5078 6.24574 37.4084 6.25994C37.1953 6.29119 37.0092 6.34091 36.8501 6.40909C36.6911 6.47727 36.5675 6.5696 36.4794 6.68608C36.3913 6.79972 36.3473 6.94176 36.3473 7.11222C36.3473 7.35938 36.4368 7.5483 36.6158 7.67898C36.7976 7.80682 37.0277 7.87074 37.3061 7.87074ZM43.696 0.272727V9H41.8807V0.272727H43.696ZM48.6317 2.45455V3.81818H44.69V2.45455H48.6317ZM45.5849 0.886364H47.4002V6.98864C47.4002 7.15625 47.4258 7.28693 47.4769 7.38068C47.5281 7.47159 47.5991 7.53551 47.69 7.57244C47.7837 7.60937 47.8917 7.62784 48.0138 7.62784C48.0991 7.62784 48.1843 7.62074 48.2695 7.60653C48.3548 7.58949 48.4201 7.5767 48.4656 7.56818L48.7511 8.91903C48.6602 8.94744 48.5323 8.98011 48.3675 9.01705C48.2028 9.05682 48.0025 9.08097 47.7667 9.08949C47.3292 9.10653 46.9457 9.0483 46.6161 8.91477C46.2894 8.78125 46.0352 8.57386 45.8533 8.29261C45.6715 8.01136 45.582 7.65625 45.5849 7.22727V0.886364ZM51.7702 5.21591V9H49.9549V0.272727H51.7191V3.60938H51.7958C51.9435 3.22301 52.1822 2.92045 52.5117 2.7017C52.8413 2.48011 53.2546 2.36932 53.7518 2.36932C54.2063 2.36932 54.6026 2.46875 54.9407 2.66761C55.2816 2.86364 55.5458 3.14631 55.7333 3.51562C55.9237 3.8821 56.0174 4.32102 56.0146 4.83239V9H54.1992V5.15625C54.2021 4.75284 54.0998 4.43892 53.8924 4.21449C53.6879 3.99006 53.4009 3.87784 53.0316 3.87784C52.7844 3.87784 52.5657 3.9304 52.3754 4.03551C52.1879 4.14062 52.0401 4.29403 51.9322 4.49574C51.8271 4.6946 51.7731 4.93466 51.7702 5.21591Z" fill="url(#paint0_linear_6_26)"/>
<defs>
<linearGradient id="paint0_linear_6_26" x1="15" y1="5" x2="52.5" y2="19" gradientUnits="userSpaceOnUse">
<stop stop-color="#6922FF"/>
<stop offset="1" stop-color="#DD9831"/>
</linearGradient>
</defs>
</svg>
